<?xml version='1.0' encoding='utf-8'?>
<svg xmlns="http://www.w3.org/2000/svg" width="1024" height="1024" viewBox="0 0 1024 1024" fill="none" role="img"><title>Raccoon SalesBuddy — square logo</title><desc>Original Raccoon symbol above two centered English lines: Raccoon and SalesBuddy.</desc><defs>
<clipPath id="clip0_361_7241">
<rect width="54" height="32" fill="white" transform="translate(0.0725729 0.78125)" />
</clipPath>
</defs>
<g id="official-raccoon-art" transform="translate(130.978603630 130.309833511) scale(14.074074074)"><g clip-path="url(#clip0_361_7241)">
<path d="M30.68 20.2585C30.8802 20.0822 31.0221 19.8489 31.0868 19.5896C31.1515 19.3303 31.1359 19.0574 31.042 18.8072C30.9482 18.557 30.7806 18.3415 30.5615 18.1894C30.3425 18.0374 30.0824 17.9559 29.8161 17.9559H24.3293C24.063 17.9559 23.8029 18.0374 23.5839 18.1894C23.3648 18.3415 23.1972 18.557 23.1034 18.8072C23.0095 19.0574 22.9939 19.3303 23.0586 19.5896C23.1233 19.8489 23.2652 20.0822 23.4654 20.2585L25.3604 21.9241C25.8339 22.3414 26.4425 22.5716 27.0727 22.5716C27.7029 22.5716 28.3115 22.3414 28.785 21.9241L30.68 20.2585Z" fill="#FFFFFF" />
<path d="M46.0628 7.80094L46.8431 2.0243C46.8658 1.86997 46.8551 1.71253 46.8116 1.56274C46.7682 1.41295 46.693 1.27433 46.5913 1.15634C46.4896 1.03835 46.3638 0.94377 46.2223 0.879054C46.0809 0.814337 45.9272 0.781008 45.7717 0.781342H41.6907C41.4742 0.778513 41.2618 0.841021 41.0812 0.960764C40.9005 1.08051 40.7598 1.25196 40.6774 1.4529C40.5949 1.65383 40.5746 1.87499 40.6189 2.08769C40.6632 2.30038 40.7702 2.49482 40.9259 2.64578L46.0628 7.80094Z" fill="#FFFFFF" />
<path d="M8.06417 7.80094L13.2011 2.64578C13.3568 2.49482 13.4638 2.30038 13.5081 2.08769C13.5524 1.87499 13.532 1.65383 13.4496 1.4529C13.3672 1.25196 13.2265 1.08051 13.0458 0.960764C12.8651 0.841021 12.6528 0.778513 12.4363 0.781342H8.35523C8.19994 0.781525 8.0465 0.815199 7.9053 0.880084C7.76411 0.944969 7.63846 1.03955 7.53686 1.15742C7.43527 1.27529 7.3601 1.41369 7.31645 1.56325C7.27281 1.71282 7.2617 1.87005 7.28388 2.0243L8.06417 7.80094Z" fill="#FFFFFF" />
<path d="M53.3205 19.5966L40.1888 6.44301C39.7594 6.01227 39.2496 5.67064 38.6885 5.43764C38.1275 5.20465 37.5262 5.08485 36.919 5.08508H31.5778C30.666 5.08531 29.7803 5.39036 29.0604 5.95205L27.7631 6.96506C27.5657 7.11927 27.3227 7.203 27.0726 7.203C26.8224 7.203 26.5795 7.11927 26.3821 6.96506L25.0847 5.95205C24.3649 5.39036 23.4791 5.08531 22.5673 5.08508H17.2261C16.6189 5.08485 16.0177 5.20465 15.4566 5.43764C14.8956 5.67064 14.3858 6.01227 13.9563 6.44301L0.824607 19.5966C0.343017 20.0812 0.0725729 20.7377 0.0725729 21.4222C0.0725729 22.1066 0.343017 22.7631 0.824607 23.2478L9.73288 32.1784C9.92305 32.3696 10.1489 32.5212 10.3976 32.6247C10.6463 32.7281 10.9128 32.7813 11.182 32.7813H18.3408L13.1884 27.6106C12.9948 27.4164 12.8412 27.1858 12.7364 26.932C12.6317 26.6782 12.5777 26.4062 12.5777 26.1314C12.5777 25.8567 12.6317 25.5847 12.7364 25.3309C12.8412 25.0771 12.9948 24.8465 13.1884 24.6523L25.4036 12.3999C25.8466 11.9562 26.4468 11.7071 27.0726 11.7071C27.6984 11.7071 28.2986 11.9562 28.7415 12.3999L38.4889 22.1788L27.921 32.7813H32.4572L40.7555 24.4534L40.9567 24.6523C41.1503 24.8465 41.3039 25.0771 41.4087 25.3309C41.5135 25.5847 41.5674 25.8567 41.5674 26.1314C41.5674 26.4062 41.5135 26.6782 41.4087 26.932C41.3039 27.1858 41.1503 27.4164 40.9567 27.6106L35.8044 32.7813H42.9694C43.2385 32.7813 43.5051 32.7281 43.7537 32.6247C44.0024 32.5212 44.2283 32.3696 44.4185 32.1784L53.3205 23.2478C53.8021 22.7631 54.0726 22.1066 54.0726 21.4222C54.0726 20.7377 53.8021 20.0812 53.3205 19.5966ZM17.2756 14.8765C16.94 14.8765 16.612 14.7766 16.3329 14.5895C16.0539 14.4024 15.8364 14.1364 15.708 13.8253C15.5796 13.5141 15.546 13.1717 15.6114 12.8414C15.6769 12.5111 15.8385 12.2077 16.0758 11.9695C16.3131 11.7314 16.6155 11.5692 16.9446 11.5035C17.2738 11.4378 17.6149 11.4715 17.925 11.6004C18.235 11.7293 18.5 11.9475 18.6865 12.2276C18.8729 12.5076 18.9725 12.8368 18.9725 13.1736C18.9716 13.625 18.7926 14.0576 18.4746 14.3768C18.1565 14.696 17.7254 14.8757 17.2756 14.8765ZM36.8695 14.8765C36.5339 14.8765 36.2058 14.7766 35.9268 14.5895C35.6478 14.4024 35.4303 14.1364 35.3018 13.8253C35.1734 13.5141 35.1398 13.1717 35.2053 12.8414C35.2708 12.5111 35.4324 12.2077 35.6697 11.9695C35.907 11.7314 36.2093 11.5692 36.5385 11.5035C36.8676 11.4378 37.2088 11.4715 37.5188 11.6004C37.8289 11.7293 38.0939 11.9475 38.2804 12.2276C38.4668 12.5076 38.5663 12.8368 38.5663 13.1736C38.5663 13.6252 38.3875 14.0584 38.0693 14.3777C37.7511 14.6971 37.3195 14.8765 36.8695 14.8765Z" fill="#FFFFFF" />
</g>
</g><g id="wordmark-raccoon"><title>Raccoon</title><path d="M27.294922 30.615234 L22.216797 30.615234 L22.216797 7.617188 Q22.216797 3.076172 20.214844 0.927734 Q18.212891 -1.220703 14.990234 -1.220703 Q11.523438 -1.220703 9.619141 1.025391 Q7.714844 3.271484 7.714844 7.617188 L7.714844 62.695312 Q7.714844 67.382812 9.814453 69.482422 Q11.914062 71.582031 16.601562 71.582031 L40.185547 71.582031 Q45.068359 71.582031 48.535156 71.166992 Q52.001953 70.751953 54.785156 69.482422 Q58.154297 68.066406 60.742188 65.429688 Q63.330078 62.792969 64.672852 59.301758 Q66.015625 55.810547 66.015625 51.904297 Q66.015625 43.896484 61.499023 39.111328 Q56.982422 34.326172 47.802734 32.324219 Q51.660156 30.273438 55.175781 26.269531 Q58.691406 22.265625 61.450195 17.749023 Q64.208984 13.232422 65.747070 9.594727 Q67.285156 5.957031 67.285156 4.589844 Q67.285156 3.173828 66.381836 1.782227 Q65.478516 0.390625 63.916016 -0.415039 Q62.353516 -1.220703 60.302734 -1.220703 Q57.861328 -1.220703 56.201172 -0.073242 Q54.541016 1.074219 53.344727 2.832031 Q52.148438 4.589844 50.097656 8.007812 L44.287109 17.675781 Q41.162109 22.998047 38.696289 25.781250 Q36.230469 28.564453 33.691406 29.589844 Q31.152344 30.615234 27.294922 30.615234 Z M35.595703 60.693359 L22.216797 60.693359 L22.216797 41.015625 L35.205078 41.015625 Q40.429688 41.015625 43.994141 41.918945 Q47.558594 42.822266 49.438477 44.995117 Q51.318359 47.167969 51.318359 50.976562 Q51.318359 53.955078 49.804688 56.225586 Q48.291016 58.496094 45.605469 59.619141 Q43.066406 60.693359 35.595703 60.693359 Z M111.181641 6.298828 Q106.347656 2.539062 101.831055 0.659180 Q97.314453 -1.220703 91.699219 -1.220703 Q86.572266 -1.220703 82.690430 0.805664 Q78.808594 2.832031 76.708984 6.298828 Q74.609375 9.765625 74.609375 13.818359 Q74.609375 19.287109 78.076172 23.144531 Q81.542969 27.001953 87.597656 28.320312 Q88.867188 28.613281 93.896484 29.638672 Q98.925781 30.664062 102.514648 31.518555 Q106.103516 32.373047 110.302734 33.593750 Q110.058594 38.867188 108.178711 41.333008 Q106.298828 43.798828 100.390625 43.798828 Q95.312500 43.798828 92.749023 42.382812 Q90.185547 40.966797 88.354492 38.134766 Q86.523438 35.302734 85.766602 34.399414 Q85.009766 33.496094 82.519531 33.496094 Q80.273438 33.496094 78.637695 34.936523 Q77.001953 36.376953 77.001953 38.623047 Q77.001953 42.138672 79.492188 45.458984 Q81.982422 48.779297 87.255859 50.927734 Q92.529297 53.076172 100.390625 53.076172 Q109.179688 53.076172 114.208984 51.000977 Q119.238281 48.925781 121.313477 44.433594 Q123.388672 39.941406 123.388672 32.519531 Q123.388672 27.832031 123.364258 24.560547 Q123.339844 21.289062 123.291016 17.285156 Q123.291016 13.525391 124.536133 9.448242 Q125.781250 5.371094 125.781250 4.199219 Q125.781250 2.148438 123.852539 0.463867 Q121.923828 -1.220703 119.482422 -1.220703 Q117.431641 -1.220703 115.429688 0.708008 Q113.427734 2.636719 111.181641 6.298828 Z M110.302734 25.585938 Q107.373047 24.511719 101.782227 23.315430 Q96.191406 22.119141 94.042969 21.557617 Q91.894531 20.996094 89.941406 19.360352 Q87.988281 17.724609 87.988281 14.794922 Q87.988281 11.767578 90.283203 9.643555 Q92.578125 7.519531 96.289062 7.519531 Q100.244141 7.519531 103.588867 9.252930 Q106.933594 10.986328 108.496094 13.720703 Q110.302734 16.748047 110.302734 23.681641 Z M184.716797 15.283203 Q184.716797 12.792969 183.227539 9.960938 Q181.738281 7.128906 178.686523 4.565430 Q175.634766 2.001953 170.996094 0.439453 Q166.357422 -1.123047 160.546875 -1.123047 Q148.193359 -1.123047 141.259766 6.079102 Q134.326172 13.281250 134.326172 25.390625 Q134.326172 33.593750 137.500000 39.892578 Q140.673828 46.191406 146.679688 49.633789 Q152.685547 53.076172 161.035156 53.076172 Q166.210938 53.076172 170.532227 51.562500 Q174.853516 50.048828 177.856445 47.656250 Q180.859375 45.263672 182.446289 42.553711 Q184.033203 39.843750 184.033203 37.500000 Q184.033203 35.107422 182.250977 33.447266 Q180.468750 31.787109 177.929688 31.787109 Q176.269531 31.787109 175.170898 32.641602 Q174.072266 33.496094 172.705078 35.400391 Q170.263672 39.111328 167.602539 40.966797 Q164.941406 42.822266 160.839844 42.822266 Q154.931641 42.822266 151.318359 38.208008 Q147.705078 33.593750 147.705078 25.585938 Q147.705078 21.826172 148.632812 18.676758 Q149.560547 15.527344 151.318359 13.305664 Q153.076172 11.083984 155.566406 9.936523 Q158.056641 8.789062 161.035156 8.789062 Q165.039062 8.789062 167.895508 10.644531 Q170.751953 12.500000 172.949219 16.308594 Q174.169922 18.554688 175.585938 19.824219 Q177.001953 21.093750 179.052734 21.093750 Q181.494141 21.093750 183.105469 19.238281 Q184.716797 17.382812 184.716797 15.283203 Z M244.140625 15.283203 Q244.140625 12.792969 242.651367 9.960938 Q241.162109 7.128906 238.110352 4.565430 Q235.058594 2.001953 230.419922 0.439453 Q225.781250 -1.123047 219.970703 -1.123047 Q207.617188 -1.123047 200.683594 6.079102 Q193.750000 13.281250 193.750000 25.390625 Q193.750000 33.593750 196.923828 39.892578 Q200.097656 46.191406 206.103516 49.633789 Q212.109375 53.076172 220.458984 53.076172 Q225.634766 53.076172 229.956055 51.562500 Q234.277344 50.048828 237.280273 47.656250 Q240.283203 45.263672 241.870117 42.553711 Q243.457031 39.843750 243.457031 37.500000 Q243.457031 35.107422 241.674805 33.447266 Q239.892578 31.787109 237.353516 31.787109 Q235.693359 31.787109 234.594727 32.641602 Q233.496094 33.496094 232.128906 35.400391 Q229.687500 39.111328 227.026367 40.966797 Q224.365234 42.822266 220.263672 42.822266 Q214.355469 42.822266 210.742188 38.208008 Q207.128906 33.593750 207.128906 25.585938 Q207.128906 21.826172 208.056641 18.676758 Q208.984375 15.527344 210.742188 13.305664 Q212.500000 11.083984 214.990234 9.936523 Q217.480469 8.789062 220.458984 8.789062 Q224.462891 8.789062 227.319336 10.644531 Q230.175781 12.500000 232.373047 16.308594 Q233.593750 18.554688 235.009766 19.824219 Q236.425781 21.093750 238.476562 21.093750 Q240.917969 21.093750 242.529297 19.238281 Q244.140625 17.382812 244.140625 15.283203 Z M305.664062 25.878906 Q305.664062 19.921875 303.808594 14.892578 Q301.953125 9.863281 298.437500 6.250000 Q294.921875 2.636719 290.039062 0.708008 Q285.156250 -1.220703 279.052734 -1.220703 Q272.998047 -1.220703 268.164062 0.732422 Q263.330078 2.685547 259.790039 6.323242 Q256.250000 9.960938 254.418945 14.916992 Q252.587891 19.873047 252.587891 25.878906 Q252.587891 31.933594 254.443359 36.962891 Q256.298828 41.992188 259.765625 45.556641 Q263.232422 49.121094 268.164062 51.049805 Q273.095703 52.978516 279.052734 52.978516 Q285.107422 52.978516 290.039062 51.025391 Q294.970703 49.072266 298.486328 45.458984 Q302.001953 41.845703 303.833008 36.865234 Q305.664062 31.884766 305.664062 25.878906 Z M292.285156 25.878906 Q292.285156 34.033203 288.696289 38.574219 Q285.107422 43.115234 279.052734 43.115234 Q275.146484 43.115234 272.167969 41.088867 Q269.189453 39.062500 267.578125 35.107422 Q265.966797 31.152344 265.966797 25.878906 Q265.966797 20.654297 267.553711 16.748047 Q269.140625 12.841797 272.094727 10.766602 Q275.048828 8.691406 279.052734 8.691406 Q285.107422 8.691406 288.696289 13.256836 Q292.285156 17.822266 292.285156 25.878906 Z M366.064453 25.878906 Q366.064453 19.921875 364.208984 14.892578 Q362.353516 9.863281 358.837891 6.250000 Q355.322266 2.636719 350.439453 0.708008 Q345.556641 -1.220703 339.453125 -1.220703 Q333.398438 -1.220703 328.564453 0.732422 Q323.730469 2.685547 320.190430 6.323242 Q316.650391 9.960938 314.819336 14.916992 Q312.988281 19.873047 312.988281 25.878906 Q312.988281 31.933594 314.843750 36.962891 Q316.699219 41.992188 320.166016 45.556641 Q323.632812 49.121094 328.564453 51.049805 Q333.496094 52.978516 339.453125 52.978516 Q345.507812 52.978516 350.439453 51.025391 Q355.371094 49.072266 358.886719 45.458984 Q362.402344 41.845703 364.233398 36.865234 Q366.064453 31.884766 366.064453 25.878906 Z M352.685547 25.878906 Q352.685547 34.033203 349.096680 38.574219 Q345.507812 43.115234 339.453125 43.115234 Q335.546875 43.115234 332.568359 41.088867 Q329.589844 39.062500 327.978516 35.107422 Q326.367188 31.152344 326.367188 25.878906 Q326.367188 20.654297 327.954102 16.748047 Q329.541016 12.841797 332.495117 10.766602 Q335.449219 8.691406 339.453125 8.691406 Q345.507812 8.691406 349.096680 13.256836 Q352.685547 17.822266 352.685547 25.878906 Z M388.671875 45.605469 L388.671875 43.994141 Q392.187500 48.632812 396.362305 50.805664 Q400.537109 52.978516 405.957031 52.978516 Q411.230469 52.978516 415.380859 50.683594 Q419.531250 48.388672 421.582031 44.189453 Q422.900391 41.748047 423.291016 38.916016 Q423.681641 36.083984 423.681641 31.689453 L423.681641 6.884766 Q423.681641 2.880859 421.850586 0.830078 Q420.019531 -1.220703 417.089844 -1.220703 Q414.111328 -1.220703 412.255859 0.878906 Q410.400391 2.978516 410.400391 6.884766 L410.400391 29.101562 Q410.400391 35.693359 408.569336 39.184570 Q406.738281 42.675781 401.269531 42.675781 Q397.705078 42.675781 394.775391 40.551758 Q391.845703 38.427734 390.478516 34.716797 Q389.501953 31.738281 389.501953 23.583984 L389.501953 6.884766 Q389.501953 2.832031 387.622070 0.805664 Q385.742188 -1.220703 382.763672 -1.220703 Q379.882812 -1.220703 378.027344 0.878906 Q376.171875 2.978516 376.171875 6.884766 L376.171875 45.410156 Q376.171875 49.218750 377.832031 51.098633 Q379.492188 52.978516 382.373047 52.978516 Q384.130859 52.978516 385.546875 52.148438 Q386.962891 51.318359 387.817383 49.658203 Q388.671875 47.998047 388.671875 45.605469 Z" fill="#FFFFFF" transform="translate(164.573658880 766.973144389) scale(1.610705482 -1.610705482)" /></g><g id="wordmark-salesbuddy"><title>SalesBuddy</title><path d="M62.207031 21.484375 Q62.207031 14.990234 58.862305 9.814453 Q55.517578 4.638672 49.072266 1.708984 Q42.626953 -1.220703 33.789062 -1.220703 Q23.193359 -1.220703 16.308594 2.783203 Q11.425781 5.664062 8.374023 10.473633 Q5.322266 15.283203 5.322266 19.824219 Q5.322266 22.460938 7.153320 24.340820 Q8.984375 26.220703 11.816406 26.220703 Q14.111328 26.220703 15.698242 24.755859 Q17.285156 23.291016 18.408203 20.410156 Q19.775391 16.992188 21.362305 14.697266 Q22.949219 12.402344 25.830078 10.913086 Q28.710938 9.423828 33.398438 9.423828 Q39.843750 9.423828 43.872070 12.426758 Q47.900391 15.429688 47.900391 19.921875 Q47.900391 23.486328 45.727539 25.708008 Q43.554688 27.929688 40.112305 29.101562 Q36.669922 30.273438 30.908203 31.591797 Q23.193359 33.398438 17.993164 35.815430 Q12.792969 38.232422 9.741211 42.407227 Q6.689453 46.582031 6.689453 52.783203 Q6.689453 58.691406 9.912109 63.281250 Q13.134766 67.871094 19.238281 70.336914 Q25.341797 72.802734 33.593750 72.802734 Q40.185547 72.802734 44.995117 71.166992 Q49.804688 69.531250 52.978516 66.821289 Q56.152344 64.111328 57.617188 61.132812 Q59.082031 58.154297 59.082031 55.322266 Q59.082031 52.734375 57.250977 50.659180 Q55.419922 48.583984 52.685547 48.583984 Q50.195312 48.583984 48.901367 49.829102 Q47.607422 51.074219 46.093750 53.906250 Q44.140625 57.958984 41.406250 60.229492 Q38.671875 62.500000 32.617188 62.500000 Q27.001953 62.500000 23.559570 60.034180 Q20.117188 57.568359 20.117188 54.101562 Q20.117188 51.953125 21.289062 50.390625 Q22.460938 48.828125 24.511719 47.705078 Q26.562500 46.582031 28.662109 45.947266 Q30.761719 45.312500 35.595703 44.091797 Q41.650391 42.675781 46.557617 40.966797 Q51.464844 39.257812 54.907227 36.816406 Q58.349609 34.375000 60.278320 30.639648 Q62.207031 26.904297 62.207031 21.484375 Z M107.275391 6.298828 Q102.441406 2.539062 97.924805 0.659180 Q93.408203 -1.220703 87.792969 -1.220703 Q82.666016 -1.220703 78.784180 0.805664 Q74.902344 2.832031 72.802734 6.298828 Q70.703125 9.765625 70.703125 13.818359 Q70.703125 19.287109 74.169922 23.144531 Q77.636719 27.001953 83.691406 28.320312 Q84.960938 28.613281 89.990234 29.638672 Q95.019531 30.664062 98.608398 31.518555 Q102.197266 32.373047 106.396484 33.593750 Q106.152344 38.867188 104.272461 41.333008 Q102.392578 43.798828 96.484375 43.798828 Q91.406250 43.798828 88.842773 42.382812 Q86.279297 40.966797 84.448242 38.134766 Q82.617188 35.302734 81.860352 34.399414 Q81.103516 33.496094 78.613281 33.496094 Q76.367188 33.496094 74.731445 34.936523 Q73.095703 36.376953 73.095703 38.623047 Q73.095703 42.138672 75.585938 45.458984 Q78.076172 48.779297 83.349609 50.927734 Q88.623047 53.076172 96.484375 53.076172 Q105.273438 53.076172 110.302734 51.000977 Q115.332031 48.925781 117.407227 44.433594 Q119.482422 39.941406 119.482422 32.519531 Q119.482422 27.832031 119.458008 24.560547 Q119.433594 21.289062 119.384766 17.285156 Q119.384766 13.525391 120.629883 9.448242 Q121.875000 5.371094 121.875000 4.199219 Q121.875000 2.148438 119.946289 0.463867 Q118.017578 -1.220703 115.576172 -1.220703 Q113.525391 -1.220703 111.523438 0.708008 Q109.521484 2.636719 107.275391 6.298828 Z M106.396484 25.585938 Q103.466797 24.511719 97.875977 23.315430 Q92.285156 22.119141 90.136719 21.557617 Q87.988281 20.996094 86.035156 19.360352 Q84.082031 17.724609 84.082031 14.794922 Q84.082031 11.767578 86.376953 9.643555 Q88.671875 7.519531 92.382812 7.519531 Q96.337891 7.519531 99.682617 9.252930 Q103.027344 10.986328 104.589844 13.720703 Q106.396484 16.748047 106.396484 23.681641 Z M133.007812 6.884766 L133.007812 64.697266 Q133.007812 68.701172 134.790039 70.751953 Q136.572266 72.802734 139.599609 72.802734 Q142.626953 72.802734 144.482422 70.776367 Q146.337891 68.750000 146.337891 64.697266 L146.337891 6.884766 Q146.337891 2.832031 144.458008 0.805664 Q142.578125 -1.220703 139.599609 -1.220703 Q136.669922 -1.220703 134.838867 0.878906 Q133.007812 2.978516 133.007812 6.884766 Z M197.314453 22.607422 L171.240234 22.607422 Q171.289062 18.066406 173.071289 14.599609 Q174.853516 11.132812 177.807617 9.375000 Q180.761719 7.617188 184.326172 7.617188 Q186.718750 7.617188 188.696289 8.178711 Q190.673828 8.740234 192.529297 9.936523 Q194.384766 11.132812 195.947266 12.500000 Q197.509766 13.867188 200.000000 16.210938 Q201.025391 17.089844 202.929688 17.089844 Q204.980469 17.089844 206.250000 15.966797 Q207.519531 14.843750 207.519531 12.792969 Q207.519531 10.986328 206.103516 8.569336 Q204.687500 6.152344 201.831055 3.930664 Q198.974609 1.708984 194.653320 0.244141 Q190.332031 -1.220703 184.716797 -1.220703 Q171.875000 -1.220703 164.746094 6.103516 Q157.617188 13.427734 157.617188 25.976562 Q157.617188 31.884766 159.375000 36.938477 Q161.132812 41.992188 164.501953 45.605469 Q167.871094 49.218750 172.802734 51.147461 Q177.734375 53.076172 183.740234 53.076172 Q191.552734 53.076172 197.143555 49.780273 Q202.734375 46.484375 205.517578 41.259766 Q208.300781 36.035156 208.300781 30.615234 Q208.300781 25.585938 205.419922 24.096680 Q202.539062 22.607422 197.314453 22.607422 Z M171.240234 30.175781 L195.410156 30.175781 Q194.921875 37.011719 191.723633 40.405273 Q188.525391 43.798828 183.300781 43.798828 Q178.320312 43.798828 175.122070 40.356445 Q171.923828 36.914062 171.240234 30.175781 Z M262.451172 16.210938 Q262.451172 10.693359 259.765625 6.762695 Q257.080078 2.832031 251.831055 0.805664 Q246.582031 -1.220703 239.062500 -1.220703 Q231.884766 -1.220703 226.757812 0.976562 Q221.630859 3.173828 219.189453 6.469727 Q216.748047 9.765625 216.748047 13.085938 Q216.748047 15.283203 218.310547 16.845703 Q219.873047 18.408203 222.265625 18.408203 Q224.365234 18.408203 225.488281 17.382812 Q226.611328 16.357422 227.636719 14.501953 Q229.687500 10.937500 232.543945 9.179688 Q235.400391 7.421875 240.332031 7.421875 Q244.335938 7.421875 246.899414 9.204102 Q249.462891 10.986328 249.462891 13.281250 Q249.462891 16.796875 246.801758 18.408203 Q244.140625 20.019531 238.037109 21.484375 Q231.152344 23.193359 226.831055 25.073242 Q222.509766 26.953125 219.921875 30.029297 Q217.333984 33.105469 217.333984 37.597656 Q217.333984 41.601562 219.726562 45.166016 Q222.119141 48.730469 226.782227 50.854492 Q231.445312 52.978516 238.037109 52.978516 Q243.212891 52.978516 247.338867 51.904297 Q251.464844 50.830078 254.223633 49.023438 Q256.982422 47.216797 258.422852 45.019531 Q259.863281 42.822266 259.863281 40.722656 Q259.863281 38.427734 258.325195 36.962891 Q256.787109 35.498047 253.955078 35.498047 Q251.904297 35.498047 250.463867 36.669922 Q249.023438 37.841797 247.167969 40.185547 Q245.654297 42.138672 243.603516 43.310547 Q241.552734 44.482422 238.037109 44.482422 Q234.423828 44.482422 232.031250 42.944336 Q229.638672 41.406250 229.638672 39.111328 Q229.638672 37.011719 231.396484 35.668945 Q233.154297 34.326172 236.132812 33.447266 Q239.111328 32.568359 244.335938 31.298828 Q250.537109 29.785156 254.467773 27.685547 Q258.398438 25.585938 260.424805 22.729492 Q262.451172 19.873047 262.451172 16.210938 Z M305.224609 0.000000 L283.349609 0.000000 Q278.613281 0.000000 276.586914 2.124023 Q274.560547 4.248047 274.560547 8.886719 L274.560547 62.695312 Q274.560547 67.431641 276.635742 69.506836 Q278.710938 71.582031 283.349609 71.582031 L306.542969 71.582031 Q311.669922 71.582031 315.429688 70.947266 Q319.189453 70.312500 322.167969 68.505859 Q324.707031 66.992188 326.660156 64.672852 Q328.613281 62.353516 329.638672 59.545898 Q330.664062 56.738281 330.664062 53.613281 Q330.664062 42.871094 319.921875 37.890625 Q334.033203 33.398438 334.033203 20.410156 Q334.033203 14.404297 330.957031 9.594727 Q327.880859 4.785156 322.656250 2.490234 Q319.384766 1.123047 315.136719 0.561523 Q310.888672 0.000000 305.224609 0.000000 Z M304.150391 31.787109 L289.062500 31.787109 L289.062500 10.888672 L304.638672 10.888672 Q319.335938 10.888672 319.335938 21.484375 Q319.335938 26.904297 315.527344 29.345703 Q311.718750 31.787109 304.150391 31.787109 Z M289.062500 60.693359 L289.062500 42.187500 L302.343750 42.187500 Q307.763672 42.187500 310.717773 43.212891 Q313.671875 44.238281 315.234375 47.119141 Q316.455078 49.169922 316.455078 51.708984 Q316.455078 57.128906 312.597656 58.911133 Q308.740234 60.693359 300.830078 60.693359 Z M380.273438 6.298828 L380.273438 8.007812 Q377.880859 4.980469 375.244141 2.929688 Q372.607422 0.878906 369.482422 -0.122070 Q366.357422 -1.123047 362.353516 -1.123047 Q357.519531 -1.123047 353.686523 0.878906 Q349.853516 2.880859 347.753906 6.396484 Q345.263672 10.644531 345.263672 18.603516 L345.263672 45.019531 Q345.263672 49.023438 347.070312 51.000977 Q348.876953 52.978516 351.855469 52.978516 Q354.882812 52.978516 356.738281 50.976562 Q358.593750 48.974609 358.593750 45.019531 L358.593750 23.681641 Q358.593750 19.042969 359.375000 15.893555 Q360.156250 12.744141 362.182617 10.961914 Q364.208984 9.179688 367.675781 9.179688 Q371.044922 9.179688 374.023438 11.181641 Q377.001953 13.183594 378.369141 16.406250 Q379.492188 19.238281 379.492188 28.808594 L379.492188 45.019531 Q379.492188 48.974609 381.347656 50.976562 Q383.203125 52.978516 386.181641 52.978516 Q389.160156 52.978516 390.966797 51.000977 Q392.773438 49.023438 392.773438 45.019531 L392.773438 6.396484 Q392.773438 2.587891 391.040039 0.683594 Q389.306641 -1.220703 386.572266 -1.220703 Q383.837891 -1.220703 382.055664 0.756836 Q380.273438 2.734375 380.273438 6.298828 Z M442.578125 6.396484 L442.578125 7.714844 Q439.892578 4.638672 437.280273 2.709961 Q434.667969 0.781250 431.616211 -0.219727 Q428.564453 -1.220703 424.951172 -1.220703 Q420.166016 -1.220703 416.088867 0.805664 Q412.011719 2.832031 409.033203 6.591797 Q406.054688 10.351562 404.516602 15.429688 Q402.978516 20.507812 402.978516 26.416016 Q402.978516 38.916016 409.082031 45.898438 Q415.185547 52.880859 425.146484 52.880859 Q430.908203 52.880859 434.863281 50.903320 Q438.818359 48.925781 442.578125 44.824219 L442.578125 64.501953 Q442.578125 68.603516 444.213867 70.703125 Q445.849609 72.802734 448.876953 72.802734 Q451.904297 72.802734 453.540039 70.874023 Q455.175781 68.945312 455.175781 65.185547 L455.175781 6.396484 Q455.175781 2.587891 453.417969 0.683594 Q451.660156 -1.220703 448.876953 -1.220703 Q446.142578 -1.220703 444.360352 0.756836 Q442.578125 2.734375 442.578125 6.396484 Z M416.357422 25.976562 Q416.357422 20.556641 418.041992 16.748047 Q419.726562 12.939453 422.656250 11.010742 Q425.585938 9.082031 429.052734 9.082031 Q432.568359 9.082031 435.473633 10.913086 Q438.378906 12.744141 440.112305 16.528320 Q441.845703 20.312500 441.845703 25.976562 Q441.845703 31.298828 440.112305 35.131836 Q438.378906 38.964844 435.424805 40.991211 Q432.470703 43.017578 428.955078 43.017578 Q425.292969 43.017578 422.412109 40.942383 Q419.531250 38.867188 417.944336 34.985352 Q416.357422 31.103516 416.357422 25.976562 Z M505.078125 6.396484 L505.078125 7.714844 Q502.392578 4.638672 499.780273 2.709961 Q497.167969 0.781250 494.116211 -0.219727 Q491.064453 -1.220703 487.451172 -1.220703 Q482.666016 -1.220703 478.588867 0.805664 Q474.511719 2.832031 471.533203 6.591797 Q468.554688 10.351562 467.016602 15.429688 Q465.478516 20.507812 465.478516 26.416016 Q465.478516 38.916016 471.582031 45.898438 Q477.685547 52.880859 487.646484 52.880859 Q493.408203 52.880859 497.363281 50.903320 Q501.318359 48.925781 505.078125 44.824219 L505.078125 64.501953 Q505.078125 68.603516 506.713867 70.703125 Q508.349609 72.802734 511.376953 72.802734 Q514.404297 72.802734 516.040039 70.874023 Q517.675781 68.945312 517.675781 65.185547 L517.675781 6.396484 Q517.675781 2.587891 515.917969 0.683594 Q514.160156 -1.220703 511.376953 -1.220703 Q508.642578 -1.220703 506.860352 0.756836 Q505.078125 2.734375 505.078125 6.396484 Z M478.857422 25.976562 Q478.857422 20.556641 480.541992 16.748047 Q482.226562 12.939453 485.156250 11.010742 Q488.085938 9.082031 491.552734 9.082031 Q495.068359 9.082031 497.973633 10.913086 Q500.878906 12.744141 502.612305 16.528320 Q504.345703 20.312500 504.345703 25.976562 Q504.345703 31.298828 502.612305 35.131836 Q500.878906 38.964844 497.924805 40.991211 Q494.970703 43.017578 491.455078 43.017578 Q487.792969 43.017578 484.912109 40.942383 Q482.031250 38.867188 480.444336 34.985352 Q478.857422 31.103516 478.857422 25.976562 Z M543.359375 -2.880859 L544.580078 0.097656 L528.173828 41.406250 Q526.660156 44.970703 526.660156 46.582031 Q526.660156 48.291016 527.539062 49.755859 Q528.417969 51.220703 529.956055 52.099609 Q531.494141 52.978516 533.154297 52.978516 Q536.035156 52.978516 537.500000 51.147461 Q538.964844 49.316406 540.087891 45.898438 L551.367188 13.085938 L562.060547 43.603516 Q563.330078 47.314453 564.355469 49.414062 Q565.380859 51.513672 566.528320 52.246094 Q567.675781 52.978516 569.775391 52.978516 Q571.289062 52.978516 572.680664 52.172852 Q574.072266 51.367188 574.829102 50.000000 Q575.585938 48.632812 575.585938 47.119141 Q575.390625 46.191406 574.951172 44.482422 Q574.511719 42.773438 573.876953 41.015625 L556.494141 -4.492188 Q554.248047 -10.498047 552.099609 -13.916016 Q549.951172 -17.333984 546.411133 -19.165039 Q542.871094 -20.996094 536.865234 -20.996094 Q531.005859 -20.996094 528.076172 -19.726562 Q525.146484 -18.457031 525.146484 -15.087891 Q525.146484 -12.792969 526.538086 -11.547852 Q527.929688 -10.302734 530.664062 -10.302734 Q531.738281 -10.302734 532.763672 -10.595703 Q534.033203 -10.888672 534.960938 -10.888672 Q537.255859 -10.888672 538.574219 -10.205078 Q539.892578 -9.521484 540.942383 -7.836914 Q541.992188 -6.152344 543.359375 -2.880859 Z" fill="#FFFFFF" transform="translate(221.680195222 861.708410298) scale(0.999537632 -0.999537632)" /></g></svg>